<svg
  id="fi_17026909"
  enable-background="new 0 0 512 512"
  viewBox="0 0 512 512"
  xmlns="http://www.w3.org/2000/svg">
  <path
    d="m245.16 137.27c42.46 4.59 78.51 32.2 94.09 72.05 1.22 3.13 4.23 5.09 7.45 5.09.69 0 1.38-.09 2.07-.27l83.56-22.39c2.13-.57 3.94-2 4.98-3.95s1.23-4.24.53-6.34c-7.5-22.23-18.5-42.91-32.71-61.59 11.78-11.21 19.14-27.01 19.14-44.52 0-33.9-27.58-61.48-61.48-61.48-23.96 0-44.74 13.78-54.88 33.83-19.69-7.3-40.3-11.67-61.4-13-2.21-.14-4.37.64-5.98 2.15s-2.52 3.62-2.52 5.83v86.62c.01 4.1 3.09 7.53 7.15 7.97zm117.65-51.99c-7.43 0-13.48-6.05-13.48-13.48s6.05-13.48 13.48-13.48 13.48 6.05 13.48 13.48-6.05 13.48-13.48 13.48zm0 18.07c9.17 0 17.78 4.01 23.75 10.77-6.92 4.25-15.05 6.71-23.75 6.71s-16.83-2.46-23.75-6.71c5.97-6.76 14.58-10.77 23.75-10.77zm0-73.47c25.08 0 45.48 20.4 45.48 45.48 0 10.61-3.67 20.38-9.78 28.13-4.12-4.65-9.07-8.43-14.56-11.16 5.16-5.31 8.35-12.55 8.35-20.53 0-16.25-13.22-29.48-29.48-29.48s-29.48 13.22-29.48 29.48c0 7.97 3.19 15.21 8.35 20.53-5.49 2.73-10.44 6.51-14.56 11.16-6.12-7.75-9.78-17.51-9.78-28.13-.02-25.08 20.38-45.48 45.46-45.48zm-108.79 21.51c16.66 1.76 32.95 5.58 48.6 11.4-.84 4.06-1.29 8.25-1.29 12.56 0 33.9 27.58 61.48 61.48 61.48 10.65 0 20.68-2.73 29.42-7.51 11.51 15.09 20.76 31.59 27.56 49.23l-68.43 18.33c-8.76-19.21-22.12-36.07-38.93-49.08-17.11-13.24-37.17-21.97-58.4-25.46v-70.95zm-223.63 248.06 83.46-22.36c3.94-1.05 6.45-4.9 5.84-8.92-.86-5.66-1.29-11.46-1.29-17.23 0-58.52 43.81-107.38 101.9-113.66 4.06-.44 7.14-3.87 7.14-7.95v-86.64c0-2.21-.91-4.32-2.52-5.83s-3.77-2.29-5.98-2.15c-39.81 2.51-77.78 15.84-110.33 38.67-11.27-12.8-27.77-20.9-46.12-20.9-33.91.01-61.49 27.58-61.49 61.48 0 23.13 12.84 43.3 31.76 53.8-10.93 26.28-16.49 54.14-16.49 82.95 0 14.29 1.41 28.61 4.2 42.57.43 2.17 1.74 4.06 3.62 5.23 1.28.79 2.74 1.21 4.22 1.21.7 0 1.4-.09 2.08-.27zm-13.39-185.49c0-25.08 20.4-45.48 45.48-45.48s45.48 20.4 45.48 45.48c0 10.61-3.67 20.38-9.78 28.13-4.12-4.65-9.07-8.43-14.56-11.16 5.16-5.31 8.35-12.55 8.35-20.53 0-16.25-13.22-29.48-29.48-29.48s-29.49 13.23-29.49 29.49c0 7.97 3.19 15.21 8.35 20.53-5.49 2.73-10.44 6.51-14.56 11.16-6.13-7.76-9.79-17.52-9.79-28.14zm45.48 9.92c-7.43 0-13.48-6.05-13.48-13.48s6.05-13.48 13.48-13.48 13.48 6.05 13.48 13.48c0 7.44-6.05 13.48-13.48 13.48zm0 18.08c9.17 0 17.78 4.01 23.75 10.77-6.92 4.25-15.05 6.71-23.75 6.71s-16.83-2.46-23.75-6.71c5.97-6.76 14.58-10.77 23.75-10.77zm-14.83 31.66c4.75 1.18 9.71 1.82 14.83 1.82 33.9 0 61.48-27.58 61.48-61.48 0-9.8-2.32-19.07-6.42-27.3 27.87-19.61 60.05-31.69 93.9-35.26v70.94c-28.99 4.77-55.57 19.25-75.45 41.26-21.66 23.98-33.59 55-33.59 87.34 0 4.17.2 8.35.59 12.5l-68.32 18.3c-1.59-10.24-2.4-20.64-2.4-31.02.01-26.79 5.19-52.69 15.38-77.1zm211.5 196.15c-1.06-3.94-4.91-6.46-8.94-5.84-5.74.88-11.62 1.33-17.48 1.33-46.88 0-89.75-29.38-106.67-73.1-1.47-3.81-5.59-5.89-9.53-4.84l-83.42 22.35c-2.13.57-3.94 2-4.98 3.95s-1.24 4.24-.53 6.34c9.36 27.74 24.62 53.71 44.31 75.59-9.81 10.9-15.79 25.3-15.79 41.09 0 33.9 27.58 61.48 61.48 61.48 25.9 0 48.09-16.11 57.13-38.82 18.81 5.22 38.28 7.86 58 7.86 14.3 0 28.62-1.41 42.58-4.19 2.17-.43 4.06-1.74 5.23-3.62s1.5-4.16.93-6.29zm-165.3 105.64c5.97-6.76 14.58-10.77 23.75-10.77s17.78 4.01 23.75 10.77c-6.92 4.25-15.05 6.71-23.75 6.71s-16.84-2.46-23.75-6.71zm23.75-28.84c-7.43 0-13.48-6.05-13.48-13.48s6.05-13.48 13.48-13.48 13.48 6.05 13.48 13.48-6.05 13.48-13.48 13.48zm35.69 18.2c-4.12-4.65-9.07-8.43-14.56-11.16 5.16-5.31 8.35-12.55 8.35-20.53 0-16.25-13.22-29.48-29.48-29.48s-29.48 13.22-29.48 29.48c0 7.97 3.19 15.21 8.35 20.53-5.49 2.73-10.44 6.51-14.56 11.16-6.12-7.75-9.78-17.51-9.78-28.13 0-25.08 20.4-45.48 45.48-45.48s45.48 20.4 45.48 45.48c-.02 10.62-3.68 20.39-9.8 28.13zm79.44-13.61c-18.4 0-36.56-2.49-54.08-7.38.27-2.34.43-4.72.43-7.13 0-33.9-27.58-61.48-61.48-61.48-12.36 0-23.88 3.68-33.53 9.99-16.45-18.21-29.59-39.49-38.4-62.27l68.26-18.29c9.66 21.41 24.87 39.73 44.3 53.29 21.92 15.3 47.68 23.39 74.51 23.39 4.26 0 8.54-.21 12.77-.62l18.25 68.13c-10.24 1.57-20.64 2.37-31.03 2.37zm216.79-234.39c-1 0-2 .03-2.99.08-.46-2.92-.97-5.83-1.55-8.71-.43-2.17-1.74-4.06-3.62-5.23s-4.16-1.5-6.29-.93l-83.52 22.38c-3.95 1.06-6.46 4.92-5.83 8.95.9 5.79 1.35 11.72 1.35 17.62 0 15.96-3.23 31.41-9.6 45.92-1.64 3.73-.21 8.1 3.33 10.14l74.77 43.17c1.23.71 2.61 1.07 4 1.07.78 0 1.56-.11 2.31-.34 2.12-.64 3.87-2.12 4.85-4.1 1.6-3.22 3.12-6.51 4.56-9.83 5.76 1.79 11.89 2.76 18.24 2.76 33.9 0 61.48-27.58 61.48-61.48s-27.59-61.47-61.49-61.47zm-33.5 115.18-61.2-35.33c5.47-14.58 8.24-29.92 8.24-45.69 0-4.31-.21-8.64-.64-12.92l68.36-18.32v.01c-24.76 7.94-42.75 31.18-42.75 58.55 0 21.86 11.48 41.08 28.72 51.98-.23.57-.47 1.15-.73 1.72zm9.75-14.94c5.97-6.76 14.58-10.77 23.75-10.77s17.78 4.01 23.75 10.77c-6.92 4.25-15.05 6.71-23.75 6.71s-16.83-2.46-23.75-6.71zm23.75-28.84c-7.43 0-13.48-6.05-13.48-13.48s6.05-13.48 13.48-13.48 13.48 6.05 13.48 13.48-6.04 13.48-13.48 13.48zm35.7 18.2c-4.12-4.65-9.07-8.43-14.56-11.16 5.16-5.31 8.35-12.55 8.35-20.53 0-16.25-13.22-29.48-29.48-29.48s-29.48 13.22-29.48 29.48c0 7.97 3.19 15.21 8.35 20.53-5.49 2.73-10.44 6.51-14.57 11.16-6.12-7.75-9.78-17.51-9.78-28.13 0-25.08 20.4-45.48 45.48-45.48s45.47 20.41 45.47 45.48c0 10.62-3.66 20.39-9.78 28.13zm-77.47 71.69c1.77-2.43 3.49-4.89 5.15-7.38 1.23-1.84 1.64-4.11 1.14-6.26s-1.88-4-3.79-5.11l-74.74-43.15c-3.54-2.05-8.05-1.09-10.46 2.2-12.94 17.69-30.53 31.22-50.85 39.14-3.8 1.48-5.88 5.58-4.82 9.52l22.32 83.29c.57 2.13 2 3.94 3.95 4.98 1.17.63 2.47.95 3.78.95.86 0 1.73-.14 2.56-.42 3.39-1.14 6.77-2.39 10.12-3.71 10.29 19.6 30.83 33.01 54.46 33.01 33.9 0 61.48-27.58 61.48-61.48-.01-18.05-7.85-34.32-20.3-45.58zm-102.85 59.71-18.26-68.15c18.19-8.27 34.21-20.6 46.92-36.11l61.14 35.3c-.04.05-.08.1-.11.15-8.41-4.33-17.93-6.79-28.02-6.79-33.9 0-61.48 27.58-61.48 61.48 0 4.62.53 9.11 1.5 13.44-.57.23-1.13.46-1.69.68zm37.91 24.65c5.97-6.76 14.58-10.77 23.75-10.77s17.78 4.01 23.75 10.77c-6.92 4.25-15.05 6.71-23.75 6.71s-16.83-2.46-23.75-6.71zm23.75-28.84c-7.43 0-13.48-6.05-13.48-13.48s6.05-13.48 13.48-13.48 13.48 6.05 13.48 13.48-6.05 13.48-13.48 13.48zm35.7 18.2c-4.12-4.65-9.07-8.43-14.56-11.16 5.16-5.31 8.35-12.55 8.35-20.53 0-16.25-13.22-29.48-29.48-29.48s-29.48 13.22-29.48 29.48c0 7.97 3.19 15.21 8.35 20.53-5.49 2.73-10.44 6.51-14.56 11.16-6.12-7.75-9.78-17.51-9.78-28.13 0-25.08 20.4-45.48 45.48-45.48s45.48 20.4 45.48 45.48c-.02 10.62-3.69 20.39-9.8 28.13zm-260.83-200.85c0 50.34 40.96 91.3 91.3 91.3s91.3-40.96 91.3-91.3-40.96-91.3-91.3-91.3-91.3 40.96-91.3 91.3zm91.3-75.3c41.52 0 75.3 33.78 75.3 75.3s-33.78 75.3-75.3 75.3-75.3-33.78-75.3-75.3 33.78-75.3 75.3-75.3zm-27.28 57.95c0-11.89 8.22-21.89 19.28-24.61v-7.55c0-4.42 3.58-8 8-8s8 3.58 8 8v7.22c6.39 1.16 12.19 4.77 16.07 10.13 2.59 3.58 1.79 8.58-1.79 11.17s-8.58 1.79-11.17-1.79c-1.77-2.45-4.6-3.91-7.58-3.91h-5.46c-5.15 0-9.34 4.19-9.34 9.34s4.19 9.34 9.34 9.34h3.88c13.97 0 25.34 11.37 25.34 25.34 0 11.89-8.23 21.89-19.28 24.61v7.55c0 4.42-3.58 8-8 8s-8-3.58-8-8v-7.22c-6.38-1.16-12.19-4.77-16.07-10.13-2.59-3.58-1.79-8.58 1.79-11.17s8.58-1.79 11.17 1.79c1.77 2.45 4.6 3.91 7.58 3.91h5.46c5.15 0 9.34-4.19 9.34-9.35 0-5.15-4.19-9.34-9.34-9.34h-3.88c-13.98.02-25.34-11.35-25.34-25.33z"></path>
</svg>
