<svg
  id="fi_9213700"
  viewBox="0 0 64 64"
  xmlns="http://www.w3.org/2000/svg"
  data-name="Bahan copy">
  <g fill="rgb(0,0,0)">
    <path
      d="m49.99658 35.538a25.45493 25.45493 0 0 0 -18.00482-7.39471c-13.76938-.26682-25.90245 11.85152-25.61948 25.6274a.99939.99939 0 0 0 .99979.99982c3.1647-.00262 17.02237.00188 20.46968 0 1.1741 6.90037 11.15274 6.9063 12.32609-.00016 3.32715-.00174 13.26918.00155 16.46008.00016a.99973.99973 0 0 0 1-1 25.40167 25.40167 0 0 0 -7.63134-18.23251zm-11.58447 13.7745-10.17188-10.10693a1.61332 1.61332 0 0 0 -2.71382 1.39607l1.98759 12.16887h-14.21816a18.72962 18.72962 0 0 1 37.40832 0h-10.52856a6.1848 6.1848 0 0 0 -1.76349-3.45801zm-7.41211-16.24475a20.6386 20.6386 0 0 0 -12.76129 5.2099l-2.03363-2.03388a23.39831 23.39831 0 0 1 14.79492-6.05242zm14.76129 5.2099a20.6386 20.6386 0 0 0 -12.76129-5.2099v-2.8764a23.39686 23.39686 0 0 1 14.79468 6.05265zm-30.98492-.63452 2.03308 2.03344a20.64728 20.64728 0 0 0 -5.51361 13.09394h-2.90326a23.36776 23.36776 0 0 1 6.38379-15.12738zm23.42968 16.75287c-.71471 4.72128-7.64035 4.75129-8.39354.035l-2.11427-12.94516 9.30376 9.24561a4.205 4.205 0 0 1 1.20405 3.66455zm14.49811-1.62549a20.64728 20.64728 0 0 0 -5.51361-13.09394l2.033-2.03326a23.3653 23.3653 0 0 1 6.38391 15.1272z"></path>
    <path
      d="m33.89355 50.29639a3.23092 3.23092 0 0 0 .0001 6.46142 3.23092 3.23092 0 0 0 -.0001-6.46142zm0 4.46142a1.23084 1.23084 0 0 1 .00006-2.46142 1.23084 1.23084 0 0 1 -.00006 2.46142z"></path>
    <path
      d="m45.80957 26.60107a11.313 11.313 0 0 0 11.29981-11.30029c-.62075-14.99255-21.98238-14.98717-22.60061.00009a11.31326 11.31326 0 0 0 11.3008 11.3002zm0-20.60107a9.31086 9.31086 0 0 1 9.29981 9.30078c-.50151 12.33509-18.10121 12.33053-18.60061-.00008a9.31107 9.31107 0 0 1 9.3008-9.3007z"></path>
    <path
      d="m45.80566 19.17871a1.43766 1.43766 0 0 1 -1.43554-1.439 1 1 0 1 0 -2 .00341 3.42729 3.42729 0 0 0 2.43945 3.26972v1.36066a1.0002 1.0002 0 0 0 2-.00007v-1.3598a3.42963 3.42963 0 0 0 -1.00391-6.71289 1.439 1.439 0 1 1 1.44238-1.4389 1 1 0 0 0 2-.00006 3.42747 3.42747 0 0 0 -2.43848-3.26947v-1.36477a.99974.99974 0 0 0 -1-1c-1.29282.0515-.96385 1.50064-1 2.36342a3.4277 3.4277 0 0 0 1.0029 6.70982 1.43912 1.43912 0 0 1 -.0068 2.87793z"></path>
  </g>
</svg>
