<svg
  clip-rule="evenodd"
  fill-rule="evenodd"
  stroke-linejoin="round"
  stroke-miterlimit="2"
  viewBox="0 0 510 510"
  xmlns="http://www.w3.org/2000/svg"
  id="fi_17335771">
  <path
    d="m462.5 222.5c17.937 0 32.5 14.563 32.5 32.5s-14.563 32.5-32.5 32.5-32.5-14.563-32.5-32.5 14.563-32.5 32.5-32.5zm-207.5 207.5c17.937 0 32.5 14.563 32.5 32.5s-14.563 32.5-32.5 32.5-32.5-14.563-32.5-32.5 14.563-32.5 32.5-32.5zm-196.861-230.522c-1.048 3.719-4.918 5.887-8.637 4.839-3.718-1.048-5.886-4.918-4.838-8.637 20.563-72.958 78.103-130.485 151.068-151.031 3.719-1.047 7.588 1.122 8.636 4.841 1.047 3.718-1.122 7.588-4.841 8.635-68.29 19.229-122.142 73.07-141.388 141.353zm252.334-141.353c-3.719-1.047-5.888-4.917-4.841-8.635 1.048-3.719 4.917-5.888 8.636-4.841 72.983 20.551 130.532 78.1 151.083 151.083 1.047 3.719-1.122 7.588-4.841 8.636-3.718 1.047-7.588-1.122-8.635-4.841-19.234-68.306-73.096-122.168-141.402-141.402zm141.402 252.348c1.047-3.719 4.917-5.888 8.635-4.841 3.719 1.048 5.888 4.917 4.841 8.636-20.551 72.983-78.1 130.532-151.083 151.083-3.719 1.047-7.588-1.122-8.636-4.841-1.047-3.718 1.122-7.588 4.841-8.635 68.306-19.234 122.168-73.096 141.402-141.402zm-252.348 141.402c3.719 1.047 5.888 4.917 4.841 8.635-1.048 3.719-4.917 5.888-8.636 4.841-72.965-20.546-130.505-78.073-151.068-151.031-1.048-3.719 1.12-7.589 4.838-8.637 3.719-1.048 7.589 1.12 8.637 4.839 19.246 68.283 73.098 122.124 141.388 141.353zm55.473-302.875c58.503 0 106 47.497 106 106s-47.497 106-106 106-106-47.497-106-106 47.497-106 106-106zm0 14c-50.776 0-92 41.224-92 92s41.224 92 92 92 92-41.224 92-92-41.224-92-92-92zm52.496 138.631c0 28.992-104.992 28.992-104.992 0s23.508-52.5 52.5-52.5 52.492 23.508 52.492 52.5zm-76.759-90.747c0-13.397 10.861-24.259 24.267-24.259 13.398 0 24.259 10.862 24.259 24.259 0 13.406-10.861 24.268-24.259 24.268-13.406 0-24.267-10.862-24.267-24.268zm-183.237 11.616c17.937 0 32.5 14.563 32.5 32.5s-14.563 32.5-32.5 32.5-32.5-14.563-32.5-32.5 14.563-32.5 32.5-32.5zm207.5-207.5c17.937 0 32.5 14.563 32.5 32.5s-14.563 32.5-32.5 32.5-32.5-14.563-32.5-32.5 14.563-32.5 32.5-32.5z"></path>
</svg>
