<svg
  xmlns="http://www.w3.org/2000/svg"
  id="fi_10235357"
  data-name="Layer 2"
  viewBox="0 0 100 100">
  <path
    d="M92.78,66.42a18,18,0,0,0-6.66-1.76,22.29,22.29,0,0,0,1.62-7.84C88.21,42.67,77,32.4,72.23,28l-.5-.45c-.69-.64-1.32-1.27-1.91-1.9a5.45,5.45,0,0,0,1.94-4.18v-.1a5.49,5.49,0,0,0-3.48-5.09,47.69,47.69,0,0,0,2.39-9.87,3.08,3.08,0,0,0-4.66-3,19.87,19.87,0,0,1-4.87,1.91,9.93,9.93,0,0,1-5,0,19.82,19.82,0,0,1-4.9-1.92,3.08,3.08,0,0,0-3.28.06,3,3,0,0,0-1.36,2.93A48.52,48.52,0,0,0,49,16.3a5.48,5.48,0,0,0-3.49,5.09v.1A5.46,5.46,0,0,0,47.89,26c-.45.48-1,1-1.58,1.55l-.48.45C41,32.4,29.85,42.66,30.31,56.81c0,.74.09,1.45.17,2.16H22.69V55.76a2,2,0,0,0-2-2H6.49a2,2,0,0,0-2,2v34.1a2,2,0,0,0,2,2h14.2a2,2,0,0,0,2-2v-2.6l21.78,8.79a15.65,15.65,0,0,0,5.26,1c4,0,7.5-1.73,11.59-3.77l.46-.23.1,0,31-17.81a4.91,4.91,0,0,0,2.63-4.44A4.82,4.82,0,0,0,92.78,66.42ZM51.62,23H51a1.48,1.48,0,0,1-1.48-1.47v-.1A1.48,1.48,0,0,1,51,19.92H66.29a1.47,1.47,0,0,1,1.47,1.47v.1A1.47,1.47,0,0,1,66.29,23ZM55.08,9.22a13.78,13.78,0,0,0,7.1,0,28.33,28.33,0,0,0,4.26-1.49,50.82,50.82,0,0,1-2.27,8.19H53.07a51.65,51.65,0,0,1-2.26-8.19A28.88,28.88,0,0,0,55.08,9.22ZM48.53,31l.49-.45A34.22,34.22,0,0,0,52.4,27H65.65A35.72,35.72,0,0,0,69,30.51l.51.46c4.37,4,14.62,13.4,14.21,25.71a17.17,17.17,0,0,1-2.21,8.26,19,19,0,0,0-4.43,1.52L66.3,71.65A6.9,6.9,0,0,0,59.6,66H48A23.13,23.13,0,0,0,34.56,59.2a20.29,20.29,0,0,1-.25-2.52C33.91,44.37,44.15,35,48.53,31Zm-40,56.9V57.76h10.2v30.1ZM91,71.63l-31,17.82-.4.2c-5.47,2.73-8.78,4.38-13.65,2.66L22.69,83V63h8.64a19.08,19.08,0,0,1,14.25,6.4,2,2,0,0,0,1.49.67H59.6a2.84,2.84,0,0,1,2.76,2.38A2.56,2.56,0,0,1,61.9,74v0s0,0-.06.08a2.64,2.64,0,0,1-2,1H37.47a2,2,0,0,0,0,4H59.82a6.49,6.49,0,0,0,4.62-1.91c.13-.13.26-.27.38-.41l14-6.74a13.78,13.78,0,0,1,4-1.31A14,14,0,0,1,91,70a.8.8,0,0,1,.47.74A.94.94,0,0,1,91,71.63Z"></path>
  <path
    d="M62,55.35h-4.6a1.13,1.13,0,0,1-1.14-1.13,2,2,0,0,0-4,0,5.14,5.14,0,0,0,5.14,5.13h.3v1.5a2,2,0,0,0,4,0v-1.5H62a5.13,5.13,0,0,0,5.13-5.13V50.9A5.14,5.14,0,0,0,62,45.77h-4.6a1.13,1.13,0,0,1-1.14-1.13V41.32a1.14,1.14,0,0,1,1.14-1.13H62a1.14,1.14,0,0,1,1.13,1.13,2,2,0,0,0,4,0A5.13,5.13,0,0,0,62,36.19h-.3v-1.5a2,2,0,0,0-4,0v1.5h-.3a5.14,5.14,0,0,0-5.14,5.13v3.32a5.14,5.14,0,0,0,5.14,5.13H62a1.14,1.14,0,0,1,1.13,1.13v3.32A1.13,1.13,0,0,1,62,55.35Z"></path>
</svg>
