<svg
  id="fi_10068779"
  enable-background="new 0 0 512 512"
  viewBox="0 0 512 512"
  xmlns="http://www.w3.org/2000/svg">
  <path
    d="m111.468 201.783c-.243 5.233-4.681 9.278-9.914 9.035-5.233-.242-9.278-4.681-9.035-9.914.243-5.232 4.681-9.278 9.914-9.035 5.233.242 9.278 4.681 9.035 9.914zm378.529 157.808-28.462 11.034c-2.56.993-5.233 1.488-7.905 1.488-3.015 0-6.028-.63-8.876-1.887-5.372-2.37-9.494-6.677-11.606-12.127l-2.483-6.405-23.165 9.665c1.117 6.563.043 13.385-3.216 19.309-3.865 7.028-10.267 12.121-18.025 14.341-.319.091-.64.178-.961.258 2.535 7.635 2.027 16.233-2.11 23.755-6.106 11.102-18.282 16.794-30.149 15.22.355 5.464-.779 11.071-3.59 16.181-3.854 7.007-10.231 12.091-17.957 14.314-4.829 1.391-9.802 1.549-14.552.518.154 5.149-1.015 10.394-3.66 15.203-3.855 7.009-10.505 12.273-18.245 14.442-2.672.749-5.383 1.12-8.067 1.12-5.027 0-9.965-1.3-14.408-3.852l-7.846-4.506c-3.891 5.477-9.46 9.502-16.024 11.492-2.944.892-5.951 1.334-8.938 1.334-4.949 0-9.843-1.214-14.315-3.606-6.636-3.549-11.534-9.277-14.1-15.96-8.286 3.527-18.005 3.363-26.402-1.126-5.945-3.181-10.517-8.169-13.249-14.035-8.735 4.728-19.585 5.136-28.955.124-7.171-3.835-12.426-10.256-14.797-18.08-1.349-4.451-1.669-9.043-.989-13.495-5.137.116-10.329-1.055-15.05-3.58-7.171-3.835-12.426-10.256-14.797-18.08s-1.564-16.082 2.271-23.252l7.66-14.321c-1.713-4.071-2.556-8.52-3.365-12.87-1.467-7.889-2.61-12.776-6.097-14.13-2.063-.801-7.396-3.121-16.567-7.208l-3.077 6.963c-2.363 5.346-6.68 9.458-12.155 11.577-2.581.999-5.27 1.497-7.951 1.497-3.007 0-6.004-.626-8.831-1.875l-27.919-12.34c-5.346-2.362-9.458-6.679-11.577-12.155s-1.985-11.436.378-16.782l64.104-145.034c2.362-5.346 6.679-9.458 12.155-11.577 5.476-2.118 11.436-1.984 16.782.379l27.919 12.339c11.065 4.891 16.088 17.872 11.199 28.937l-4.808 10.878 18.173 8.384c.194.09.385.188.572.292 9.986 5.62 20.414 3.176 33.616.083 17.235-4.036 38.443-8.996 63.189 5.542 34.186-21.136 60.451-10.423 79.839-2.499 14.45 5.906 23.048 9.029 31.739 4.507l15.846-8.482-4.362-11.251c-4.373-11.28 1.247-24.015 12.526-28.387l28.461-11.034c5.449-2.113 11.408-1.971 16.781.399 5.372 2.37 9.494 6.677 11.606 12.127l57.316 147.848c4.375 11.278-1.245 24.013-12.524 28.386zm-362.604-163.264c1.324-2.996-.037-6.511-3.032-7.835l-27.92-12.34c-.755-.333-1.559-.501-2.368-.501-.73 0-1.465.137-2.172.41-1.49.577-2.66 1.686-3.295 3.123l-64.103 145.035c-.635 1.438-.667 3.049-.091 4.539.577 1.49 1.686 2.661 3.123 3.295l27.92 12.341c1.438.635 3.05.667 4.539.091 1.49-.577 2.661-1.686 3.296-3.123zm7.841 218.929 18.284-31.644c3.011-6.919.214-15.053-6.459-18.615-7.075-3.776-15.905-1.104-19.683 5.96l-13.898 25.985c-1.82 3.402-2.199 7.333-1.067 11.066 1.131 3.733 3.628 6.792 7.031 8.612 5.068 2.712 11.275 2.138 15.792-1.364zm34.768 30.47 20.2-39.117c1.219-6.202-1.788-12.7-7.372-15.68-5.116-2.731-11.365-2.131-15.887 1.432l-22.629 39.738c-1.819 3.402-2.198 7.332-1.067 11.065 1.132 3.734 3.629 6.792 7.031 8.612 7.061 3.775 15.908 1.063 19.724-6.05zm40.888 15.946 17.914-34.43c1.213-6.199-1.794-12.691-7.374-15.668-5.562-2.97-12.591-1.901-17.065 2.48l-19.516 37.794c-.381 5.682 2.584 11.137 7.633 13.838 6.281 3.36 14.109 1.619 18.408-4.014zm41.772 15.139 13.326-24.918c2.624-4.906 2.168-11-1.159-15.527-1.272-1.731-2.888-3.126-4.802-4.149-5.564-2.974-12.597-1.898-17.073 2.495l-17.563 33.756c-.592 5.858 2.364 11.509 7.594 14.306 3.402 1.82 7.333 2.198 11.066 1.067s6.791-3.628 8.611-7.03zm41.098-23c-.431-.242-10.234-5.943-10.234-5.943-.36 3.994-1.485 7.937-3.429 11.571l-7.613 14.235 8.045 4.621c3.06 1.757 6.679 2.183 10.188 1.2 3.631-1.018 6.745-3.477 8.544-6.747 3.675-6.682 1.207-15.177-5.501-18.937zm96.764-93.55c-1.272-2.62-3.291-4.772-5.838-6.224l-75.698-43.146c-12.854-7.326-28.912-.826-47.506 6.701-13.9 5.627-29.525 11.95-45.357 11.952-15.469.001-31.135-6.033-45.602-24.648-1.898-2.436-2.627-5.461-2.044-8.511.589-3.062 2.391-5.606 5.077-7.173 21.346-12.458 39.375-26.058 53.586-40.418 3.697-3.736 7.425-7.171 11.157-10.298-16.379-7.196-30.386-3.924-45.07-.485-14.507 3.399-29.504 6.912-44.817-1.553l-17.662-8.148-43.281 97.924c8.76 3.905 14.1 6.233 15.888 6.927 10.667 4.141 13.696 14.327 15.419 22.889 9.271-9.106 23.76-11.601 35.817-5.166 8.933 4.768 14.572 13.433 15.856 22.852 6.655-1.225 13.683-.247 19.915 3.079 7.488 3.997 12.732 10.743 14.953 18.469 7.648-2.432 16.162-1.818 23.646 2.176 7.488 3.996 12.732 10.741 14.953 18.466 7.652-2.434 16.167-1.818 23.65 2.18 3.573 1.909 6.656 4.445 9.188 7.545l39.852 22.557c3.185 1.769 6.899 2.18 10.46 1.155 3.605-1.038 6.575-3.399 8.363-6.65 3.654-6.644 1.168-15.122-5.542-18.899-.436-.245-.835-.529-1.205-.838l-54.717-30.789c-3.851-2.167-5.216-7.045-3.049-10.895 2.167-3.851 7.045-5.215 10.895-3.049l68.503 38.546c6.709 3.687 15.167 1.23 18.856-5.477 3.654-6.642 1.169-15.117-5.539-18.896-19.385-10.858-35.536-19.92-52.154-29.433-3.834-2.195-5.163-7.083-2.968-10.917s7.083-5.163 10.917-2.968c16.561 9.48 32.681 18.525 52.034 29.365 3.156 1.768 6.85 2.182 10.398 1.166 3.627-1.038 6.613-3.407 8.408-6.67 2.167-3.944 2.261-8.57.258-12.698zm34.355-23.49-38.86-100.241-14.206 7.604c-15.773 8.205-30.763 2.079-45.26-3.848-19.622-8.02-39.912-16.314-69.156 3.749-6.227 4.255-12.576 9.64-18.882 16.012-13.945 14.092-31.213 27.431-51.395 39.707 20.722 22.292 42.91 13.31 68.358 3.007 20.57-8.328 41.839-16.938 61.433-5.771l75.698 43.146c3.107 1.771 5.843 4.041 8.117 6.713zm62.726.216-57.316-147.848c-.568-1.465-1.686-2.627-3.148-3.272-.779-.344-1.602-.517-2.422-.517-.717 0-1.433.132-2.116.397l-28.462 11.034c-3.054 1.184-4.575 4.632-3.392 7.687l57.317 147.848c.568 1.465 1.686 2.627 3.147 3.272 1.462.646 3.073.688 4.538.12l28.462-11.034c3.054-1.185 4.576-4.633 3.392-7.687zm-71.717-135.817c-5.224 0-9.485 4.261-9.485 9.485s4.261 9.485 9.485 9.485 9.485-4.26 9.485-9.485c0-5.224-4.261-9.485-9.485-9.485zm-260.385-116.659c1.608-4.95 6.006-8.312 11.204-8.565l57.318-2.793 20.369-53.649c1.843-4.855 6.399-7.992 11.608-7.992s9.766 3.137 11.609 7.993l20.368 53.648 57.318 2.793c5.197.253 9.595 3.616 11.204 8.565 1.608 4.949.027 10.254-4.029 13.515l-44.729 35.951 15.055 55.375c1.365 5.021-.473 10.243-4.683 13.302-2.19 1.591-4.74 2.392-7.294 2.392-2.355 0-4.715-.68-6.804-2.047l-48.015-31.431-48.013 31.432c-4.356 2.851-9.89 2.715-14.1-.345-4.21-3.059-6.048-8.28-4.683-13.302l15.055-55.375-44.729-35.951c-4.056-3.261-5.637-8.566-4.029-13.516zm97.149-59.329c.002.006.004.011.007.017l-.007-.017c0 .001 0 .001 0 0zm-75.74 66.287 39.202 31.508c3.907 3.139 5.518 8.096 4.204 12.934l-13.195 48.534 42.079-27.546c4.195-2.746 9.407-2.747 13.602 0l42.079 27.546-13.194-48.532c-1.316-4.838.295-9.795 4.204-12.936l39.201-31.507-50.235-2.449c-5.005-.242-9.223-3.305-11.003-7.993l-17.852-47.021-17.854 47.018c-1.78 4.688-5.997 7.752-11.006 7.995z"></path>
</svg>
