<?xml version="1.0" encoding="UTF-8"?>
<svg id="Layer_1" data-name="Layer 1" xmlns="http://www.w3.org/2000/svg" width="249.46" height="76.33" xmlns:xlink="http://www.w3.org/1999/xlink" viewBox="0 0 249.46 76.33">
  <defs>
    <style>
      .cls-1 {
        fill: #30314f;
      }

      .cls-2 {
        fill: url(#linear-gradient);
      }
    </style>
    <linearGradient id="linear-gradient" x1="3.58" y1="14.38" x2="62.55" y2="61.64" gradientUnits="userSpaceOnUse">
      <stop offset="0" stop-color="#7168dc"/>
      <stop offset="1" stop-color="#453bbf"/>
    </linearGradient>
  </defs>
  <g>
    <path class="cls-1" d="M97.02,51.74c-1.1-.63-1.96-1.51-2.58-2.62-.62-1.11-.93-2.38-.93-3.82v-11.88c0-.52.22-.99.66-1.4.44-.41.96-.62,1.57-.62s1.07.21,1.46.62c.4.41.6.88.6,1.4v11.88c0,1.07.26,1.92.78,2.54.52.62,1.25.93,2.19.93h5.4v-15.3c0-.6.21-1.1.62-1.48.41-.38.92-.58,1.53-.58s1.11.21,1.53.62.62.88.62,1.4v16.7c0,.69-.25,1.29-.76,1.79-.51.51-1.16.76-1.96.76h-6.97c-1.4,0-2.65-.32-3.75-.95Z"/>
    <path class="cls-1" d="M115.6,52.13c-.4-.37-.6-.82-.6-1.34,0-.55.19-1.02.58-1.4.38-.39.88-.58,1.48-.58h6.02c1.35,0,2.36-.21,3.03-.62.67-.41,1.01-1.09,1.01-2.02,0-1.26-1.09-2.02-3.26-2.27l-1.77-.21c-2.34-.27-4.13-.86-5.38-1.75-1.25-.89-1.88-2.3-1.88-4.23,0-2.12.74-3.7,2.21-4.74,1.47-1.04,3.31-1.57,5.51-1.57h5.98c.6,0,1.11.19,1.51.56.4.37.6.83.6,1.38s-.2,1.01-.6,1.38c-.4.37-.87.56-1.42.56h-6.06c-1.07,0-1.91.19-2.52.56-.61.37-.91.91-.91,1.63,0,.55.12.97.35,1.26.23.29.6.51,1.11.66.51.15,1.3.31,2.37.47l1.32.21c2.39.36,4.18,1,5.36,1.94,1.18.94,1.77,2.31,1.77,4.12,0,2.37-.75,4.05-2.25,5.05-1.5,1-3.55,1.51-6.17,1.51h-5.94c-.58,0-1.07-.19-1.46-.56Z"/>
    <path class="cls-1" d="M139.3,50.81c-1.1-1.25-1.65-3.1-1.65-5.55v-9.28h-2.06c-.63,0-1.15-.19-1.55-.58-.4-.38-.6-.87-.6-1.44s.2-1.06.6-1.46c.4-.4.91-.6,1.55-.6h2.06v-4.37c0-.55.21-1.02.62-1.42.41-.4.91-.6,1.48-.6.63,0,1.15.2,1.57.6.41.4.62.87.62,1.42v4.37h4.12c.66,0,1.19.2,1.59.6.4.4.6.89.6,1.46s-.2,1.06-.6,1.44c-.4.39-.91.58-1.55.58h-4.17v9.28c0,1.21.19,2.07.58,2.58.38.51,1.09.76,2.1.76h1.48c.63,0,1.15.21,1.55.62.4.41.6.91.6,1.48s-.2,1.05-.6,1.42c-.4.37-.91.56-1.55.56h-1.48c-2.45,0-4.22-.63-5.32-1.88Z"/>
    <path class="cls-1" d="M81.26,52.69h-2.58c-.63,0-1.15-.19-1.55-.56-.4-.37-.6-.85-.6-1.42,0-.58.2-1.07.6-1.48.4-.41.91-.62,1.55-.62h2.58c1.02,0,1.72-.25,2.1-.76.39-.51.58-1.37.58-2.58v-19.6c0-.55.21-1.02.62-1.42.41-.4.93-.6,1.57-.6.58,0,1.07.2,1.48.6.41.4.62.87.62,1.42v19.6c0,2.45-.55,4.3-1.65,5.55-1.1,1.25-2.87,1.88-5.32,1.88Z"/>
    <path class="cls-1" d="M153.55,52.13c-.4-.37-.6-.83-.6-1.38,0-.6.2-1.11.6-1.51.4-.4.9-.6,1.51-.6h7.55c1.76,0,3.02-.38,3.79-1.13.77-.76,1.15-2.04,1.15-3.86,0-.91-.17-1.6-.49-2.08-.33-.48-.85-.85-1.55-1.11-.7-.26-1.77-.54-3.2-.85-1.98-.38-3.61-.82-4.89-1.3-1.28-.48-2.34-1.28-3.2-2.39-.85-1.11-1.28-2.63-1.28-4.56,0-5.22,3.2-7.84,9.61-7.84h6.6c.6,0,1.11.19,1.53.56s.62.83.62,1.38c0,.6-.2,1.11-.6,1.51-.4.4-.9.6-1.51.6h-6.64c-1.81,0-3.13.28-3.96.85-.82.56-1.24,1.55-1.24,2.95,0,1.05.19,1.84.58,2.39.38.55.96.95,1.71,1.2.76.25,1.9.51,3.44.78,1.95.33,3.57.77,4.85,1.32,1.28.55,2.27,1.35,2.97,2.41.7,1.06,1.05,2.45,1.05,4.19,0,3.11-.79,5.39-2.37,6.85-1.58,1.46-3.91,2.19-6.99,2.19h-7.55c-.61,0-1.11-.19-1.51-.56Z"/>
    <path class="cls-1" d="M179.43,50.81c-1.1-1.25-1.65-3.1-1.65-5.55v-9.28h-2.06c-.63,0-1.15-.19-1.55-.58-.4-.38-.6-.87-.6-1.44s.2-1.06.6-1.46c.4-.4.91-.6,1.55-.6h2.06v-4.37c0-.55.21-1.02.62-1.42.41-.4.91-.6,1.48-.6.63,0,1.15.2,1.57.6.41.4.62.87.62,1.42v4.37h4.12c.66,0,1.19.2,1.59.6.4.4.6.89.6,1.46s-.2,1.06-.6,1.44c-.4.39-.91.58-1.55.58h-4.17v9.28c0,1.21.19,2.07.58,2.58.38.51,1.09.76,2.1.76h1.48c.63,0,1.15.21,1.55.62.4.41.6.91.6,1.48s-.2,1.05-.6,1.42c-.4.37-.91.56-1.55.56h-1.48c-2.45,0-4.22-.63-5.32-1.88Z"/>
    <path class="cls-1" d="M193.58,50.88c-1.24-1.21-1.86-2.76-1.86-4.66s.62-3.5,1.86-4.72c1.24-1.22,2.85-1.84,4.83-1.84h5.65v-1.53c0-.88-.22-1.57-.66-2.08-.44-.51-1.03-.76-1.77-.76h-6.6c-.66,0-1.18-.18-1.57-.54-.39-.36-.58-.81-.58-1.36s.19-1.02.56-1.4c.37-.38.86-.58,1.46-.58h6.81c2.01,0,3.62.62,4.83,1.86,1.21,1.24,1.81,2.86,1.81,4.87v12c0,.74-.25,1.35-.76,1.84-.51.48-1.15.72-1.92.72h-7.26c-1.98,0-3.59-.6-4.83-1.82ZM196.63,48.07c.44.5,1.03.74,1.77.74h5.65v-5.36h-5.65c-.72,0-1.3.26-1.75.78-.45.52-.68,1.17-.68,1.94s.22,1.4.66,1.9Z"/>
    <path class="cls-1" d="M214.16,52.11c-.41-.38-.62-.85-.62-1.4v-25.2c0-.55.21-1.02.62-1.4.41-.38.93-.58,1.57-.58s1.11.19,1.51.56c.4.37.6.85.6,1.42v13.82h1.57l5.57-6.81c.55-.66,1.22-.99,2.02-.99.63,0,1.13.19,1.48.56.36.37.54.82.54,1.34,0,.55-.21,1.06-.62,1.53l-5.2,6.31,5.94,7.92c.3.41.45.88.45,1.4,0,.55-.19,1.04-.56,1.46-.37.43-.87.64-1.51.64-.8,0-1.39-.28-1.77-.82l-6.76-9.24h-1.15v8.04c0,.58-.2,1.06-.6,1.44-.4.39-.9.58-1.51.58s-1.15-.19-1.57-.58Z"/>
    <path class="cls-1" d="M235.79,51.62c-1.2-.71-2.04-1.77-2.52-3.18-.48-1.4-.72-3.23-.72-5.49v-3.05c0-1.73.36-3.24,1.09-4.54.73-1.29,1.73-2.27,3.01-2.95,1.28-.67,2.7-1.01,4.27-1.01,2.72,0,4.83.74,6.31,2.21,1.48,1.47,2.23,3.57,2.23,6.29v1.81c0,.69-.25,1.27-.76,1.75-.51.48-1.13.72-1.88.72h-9.94c.08,1.76.42,2.97,1.01,3.63.59.66,1.56.99,2.91.99h5.94c.63,0,1.13.19,1.51.56s.56.85.56,1.42c0,.52-.19.97-.56,1.34s-.85.56-1.42.56h-6.06c-2.12,0-3.77-.36-4.97-1.07ZM245.17,40.73v-.87c0-1.57-.36-2.72-1.07-3.46-.72-.74-1.79-1.11-3.22-1.11-1.26,0-2.25.39-2.97,1.18-.72.78-1.07,1.92-1.07,3.4v.87h8.33Z"/>
  </g>
  <path class="cls-2" d="M33.07,0l16.38,9.58,16.69,9.27v38.32l-11.13,6.49v-5.22l-9.58-8.38v-30.5l-14.22-11.43v20l-1.55.93h0l-8.34,7.06v11.48l-7.41,6.51v11.11S0,57.17,0,57.17V18.85l16.38-9.27L33.07,0ZM45.43,50.06v19.16l-4.94,2.78v-17.3l4.94-4.64ZM35.54,74.78l-2.47,1.54-1.85-1.24V28.12l4.33-3.71v50.37ZM28.12,73.55l-6.8-4.02v-21.94l6.8-6.18v32.14Z"/>
</svg>